<svg width="512" height="512" viewBox="0 0 512 512" fill="none" xmlns="http://www.w3.org/2000/svg">
<path d="M326.622 133.062C340.407 133.062 351.622 121.847 351.622 108.062C351.622 94.2765 340.407 83.0605 326.622 83.0605C312.837 83.0605 301.622 94.2765 301.622 108.062C301.622 113.692 303.494 118.892 306.647 123.076L265.571 180.477C263.12 179.672 260.505 179.23 257.787 179.23C251.218 179.23 245.236 181.781 240.77 185.939L213.391 170.403C213.756 168.707 213.952 166.949 213.952 165.146C213.952 151.361 202.737 140.146 188.952 140.146C175.167 140.146 163.952 151.361 163.952 165.146C163.952 166.949 164.148 168.707 164.513 170.403L137.134 185.939C132.668 181.781 126.686 179.231 120.117 179.231C106.332 179.231 95.1172 190.447 95.1172 204.232C95.1172 218.017 106.332 229.233 120.117 229.233C133.902 229.233 145.117 218.017 145.117 204.232C145.117 202.429 144.921 200.671 144.556 198.975L171.935 183.439C176.401 187.597 182.383 190.148 188.952 190.148C195.521 190.148 201.502 187.597 205.969 183.44L233.348 198.976C232.983 200.672 232.787 202.43 232.787 204.233C232.787 218.018 244.002 229.234 257.787 229.234C271.573 229.234 282.788 218.018 282.788 204.233C282.788 198.602 280.915 193.401 277.762 189.217L318.838 131.816C321.288 132.62 323.904 133.062 326.622 133.062ZM326.622 98.0605C332.136 98.0605 336.622 102.547 336.622 108.062C336.622 113.576 332.136 118.062 326.622 118.062C321.108 118.062 316.622 113.576 316.622 108.062C316.621 102.547 321.107 98.0605 326.622 98.0605ZM120.114 214.231C114.6 214.231 110.114 209.745 110.114 204.23C110.114 198.715 114.6 194.229 120.114 194.229C125.628 194.229 130.114 198.715 130.114 204.23C130.114 209.745 125.628 214.231 120.114 214.231ZM188.95 175.146C183.436 175.146 178.95 170.66 178.95 165.145C178.95 159.631 183.436 155.145 188.95 155.145C194.464 155.145 198.95 159.631 198.95 165.145C198.951 170.66 194.464 175.146 188.95 175.146ZM257.786 214.231C252.272 214.231 247.786 209.745 247.786 204.23C247.786 198.715 252.272 194.229 257.786 194.229C263.301 194.229 267.787 198.715 267.787 204.23C267.787 209.745 263.3 214.231 257.786 214.231Z" fill="#F6F7F8"/>
<path d="M418.796 376.964H366.31H80.428H21.215C17.788 376.964 15 374.176 15 370.749V61.3302C15 57.9032 17.788 55.1152 21.215 55.1152H56.571C60.713 55.1152 64.071 51.7582 64.071 47.6152C64.071 43.4722 60.713 40.1152 56.571 40.1152H21.215C9.517 40.1152 0 49.6322 0 61.3302V370.749C0 382.447 9.517 391.964 21.215 391.964H72.928V408.47C72.928 417.873 80.578 425.523 89.981 425.523H165.055L129.715 494.521C127.827 498.208 129.284 502.727 132.971 504.616C134.065 505.177 135.233 505.442 136.384 505.442C139.109 505.442 141.738 503.952 143.065 501.359L181.908 425.523H264.83L303.673 501.359C305.001 503.952 307.629 505.442 310.354 505.442C311.505 505.442 312.673 505.175 313.767 504.616C317.454 502.727 318.912 498.208 317.023 494.521L281.683 425.523H356.757C366.16 425.523 373.81 417.874 373.81 408.47V391.964H418.796C422.938 391.964 426.296 388.607 426.296 384.464C426.296 380.321 422.938 376.964 418.796 376.964ZM358.81 408.47C358.81 409.602 357.889 410.523 356.757 410.523H89.981C88.849 410.523 87.928 409.602 87.928 408.47V391.964H358.81V408.47Z" fill="#F6F7F8"/>
<path d="M86.5703 55.1156H189.242H257.493H425.521C428.948 55.1156 431.736 57.9036 431.736 61.3306V132.642C431.736 136.785 435.094 140.142 439.236 140.142C443.378 140.142 446.736 136.785 446.736 132.642V61.3306C446.736 49.6326 437.219 40.1156 425.521 40.1156H264.994V25.3736C264.994 14.9986 256.553 6.55762 246.177 6.55762H200.559C190.184 6.55762 181.742 14.9986 181.742 25.3736V40.1156H86.5703C82.4283 40.1156 79.0703 43.4726 79.0703 47.6156C79.0703 51.7586 82.4283 55.1156 86.5703 55.1156ZM196.742 25.3736C196.742 23.2696 198.454 21.5576 200.559 21.5576H246.177C248.281 21.5576 249.994 23.2696 249.994 25.3736V40.1156H196.743V25.3736H196.742Z" fill="#F6F7F8"/>
<path d="M104.902 267.575C100.76 267.575 97.4023 270.932 97.4023 275.075V341.347C97.4023 345.49 100.76 348.847 104.902 348.847H135.329C139.471 348.847 142.829 345.49 142.829 341.347V275.075C142.829 270.932 139.471 267.575 135.329 267.575H104.902ZM127.829 333.848H112.402V282.576H127.829V333.848Z" fill="#F6F7F8"/>
<path d="M173.738 229.248C169.596 229.248 166.238 232.605 166.238 236.748V341.349C166.238 345.492 169.596 348.849 173.738 348.849H204.165C208.307 348.849 211.665 345.492 211.665 341.349V236.748C211.665 232.605 208.307 229.248 204.165 229.248H173.738ZM196.666 333.849H181.239V244.248H196.666V333.849Z" fill="#F6F7F8"/>
<path d="M242.574 267.575C238.432 267.575 235.074 270.932 235.074 275.075V341.347C235.074 345.49 238.432 348.847 242.574 348.847H273.001C277.143 348.847 280.501 345.49 280.501 341.347V275.075C280.501 270.932 277.143 267.575 273.001 267.575H242.574ZM265.501 333.848H250.074V282.576H265.501V333.848Z" fill="#F6F7F8"/>
<path d="M311.41 311.832C307.268 311.832 303.91 315.189 303.91 319.332V341.349C303.91 345.492 307.268 348.849 311.41 348.849H341.837C345.979 348.849 349.337 345.492 349.337 341.349C349.337 337.206 345.979 333.849 341.837 333.849H318.91V319.332C318.91 315.189 315.552 311.832 311.41 311.832Z" fill="#F6F7F8"/>
<path d="M508.173 384.018L465.146 309.492C476.047 297.873 483.985 283.676 488.225 267.852C495.002 242.561 491.524 216.144 478.432 193.468C451.406 146.655 391.335 130.562 344.525 157.587C297.714 184.612 281.619 244.683 308.645 291.494C321.737 314.17 342.876 330.39 368.167 337.168C376.613 339.431 385.182 340.55 393.697 340.55C401.139 340.55 408.538 339.694 415.774 338L458.792 412.528C464.065 421.665 473.667 426.778 483.529 426.777C488.362 426.777 493.258 425.548 497.737 422.964C506.533 417.887 511.998 408.42 511.998 398.258C511.998 393.279 510.676 388.356 508.173 384.018ZM372.049 322.679C350.628 316.939 332.723 303.2 321.634 283.994C298.744 244.346 312.377 193.468 352.024 170.577C365.067 163.047 379.32 159.471 393.398 159.471C422.113 159.471 450.081 174.364 465.441 200.968C476.529 220.174 479.475 242.548 473.735 263.97C467.995 285.392 454.256 303.295 435.05 314.384C415.845 325.473 393.471 328.417 372.049 322.679ZM490.24 409.972C483.787 413.698 475.507 411.48 471.784 405.03L430.396 333.326C434.544 331.633 438.606 329.653 442.552 327.375C446.501 325.095 450.241 322.557 453.782 319.809L495.182 391.516C496.37 393.577 496.998 395.909 496.998 398.259C496.998 403.077 494.408 407.566 490.24 409.972Z" fill="#F6F7F8"/>
<path d="M461.543 263.611C466.838 246.555 465.577 228.295 457.992 212.195C456.226 208.447 451.758 206.841 448.011 208.606C444.263 210.372 442.657 214.84 444.423 218.587C450.406 231.287 451.399 245.696 447.218 259.162C443.014 272.702 433.932 284.065 421.645 291.159C408.643 298.667 393.494 300.659 378.993 296.774C364.491 292.888 352.369 283.587 344.863 270.585C329.366 243.744 338.596 209.3 365.437 193.803C385.062 182.474 409.417 183.988 427.488 197.66C430.792 200.16 435.495 199.509 437.994 196.205C440.493 192.902 439.842 188.198 436.538 185.699C413.647 168.378 382.793 166.461 357.936 180.812C341.464 190.322 329.681 205.678 324.758 224.05C319.835 242.422 322.362 261.612 331.872 278.084C341.382 294.557 356.738 306.339 375.11 311.263C381.245 312.907 387.471 313.72 393.656 313.72C405.994 313.72 418.173 310.484 429.144 304.149C444.711 295.163 456.217 280.767 461.543 263.611Z" fill="#F6F7F8"/>
</svg>
