<svg width="512" height="512" viewBox="0 0 512 512" fill="none" xmlns="http://www.w3.org/2000/svg">
<g clip-path="url(#clip0_322_112)">
<path d="M9.69906 257.448L50.504 273.546C55.896 275.672 61.775 274.549 65.98 271.025L98.2939 291.403L103.836 295.299C96.8059 306.425 98.6069 321.629 109.296 330.692C115.169 335.672 122.632 337.797 129.937 337.001C130.366 344.68 133.858 351.519 139.541 356.336C145.126 361.072 152.417 363.497 160.181 362.65C160.613 370.326 164.103 377.163 169.786 381.981C175.423 386.761 182.728 389.135 190.439 388.294C190.842 395.525 194.085 402.584 200.031 407.626C211.517 417.367 228.796 415.954 238.535 404.469L245.019 396.858L255.946 404.922C274.838 418.867 301.539 407.443 304.002 384.264C323.48 391.342 344.162 377.691 344.462 356.727C362.822 360.179 379.114 346.844 380.137 329.156C403.952 335.517 425.493 311.451 414.977 287.92L444.177 269.165C448.358 274.118 455.306 275.989 461.501 273.545L502.306 257.448C510.16 254.35 514.031 245.439 510.932 237.583L492.282 190.309C490.762 186.455 486.405 184.565 482.553 186.085C478.699 187.605 476.808 191.961 478.328 195.814L496.977 243.087C497.041 243.248 496.962 243.431 496.801 243.495L455.996 259.592C455.834 259.655 455.653 259.577 455.589 259.416C454.16 255.794 408.359 139.694 404.309 129.428C404.294 129.392 404.261 129.308 404.313 129.189C404.365 129.07 404.45 129.037 404.485 129.022L445.291 112.924C445.326 112.909 445.409 112.876 445.531 112.928C445.649 112.98 445.682 113.064 445.697 113.1L465.468 163.214C466.989 167.068 471.345 168.958 475.197 167.438C479.051 165.918 480.942 161.562 479.422 157.709L459.651 107.596C456.554 99.7419 447.642 95.8719 439.788 98.9709L398.981 115.069C391.69 117.945 387.841 125.769 389.797 133.186L367.922 141.26C361.115 143.773 353.725 144.502 346.553 143.365L324.441 139.86C320.351 139.213 316.507 142.004 315.86 146.093C315.212 150.184 318.002 154.027 322.093 154.675L344.205 158.18C353.908 159.717 363.904 158.732 373.117 155.331L395.19 147.183C397.586 153.257 435.395 249.095 437.876 255.384L405.692 276.055L405.146 275.652C405.144 275.65 405.141 275.648 405.139 275.647C401.691 273.102 345.73 231.804 343.104 229.865C341.496 228.678 339.498 228.145 337.2 228.535C306.13 233.818 278.294 222.77 257.815 201.387C251.443 194.734 241.047 194.377 234.144 200.575C214.277 218.418 186.514 235.817 167.089 217.356C165.159 215.523 165.145 212.137 168.076 210.245C192.82 194.328 218.453 171.979 239.081 151.111C244.215 145.916 251.599 143.501 258.846 144.65L287.315 149.163C291.414 149.812 295.247 147.02 295.895 142.93C296.543 138.839 293.753 134.996 289.662 134.348L261.194 129.835C249.19 127.933 236.937 131.945 228.414 140.567C226.028 142.98 223.206 145.782 220.024 148.855C210.42 145.45 200.41 143.416 190.228 142.844C160.424 141.17 157.839 140.854 151.071 141.289C145.759 141.628 140.355 140.725 135.44 138.669L122.222 133.138C124.13 125.764 120.287 117.931 113.025 115.067L72.2199 98.9709C64.363 95.8709 55.453 99.7409 52.355 107.596L1.07408 237.583C-2.03091 245.455 1.82408 254.342 9.69906 257.448ZM136.371 317.82C131.976 323.004 124.183 323.647 118.997 319.251C113.777 314.825 113.185 307.045 117.556 301.89L136.107 280.117C140.398 275.054 148.212 274.22 153.481 278.686C158.677 283.091 159.319 290.862 154.911 296.059C154.909 296.061 154.908 296.063 154.906 296.065L136.371 317.82ZM166.615 343.466C162.21 348.661 154.441 349.303 149.242 344.896C144.022 340.47 143.43 332.69 147.801 327.535L166.352 305.761C170.959 300.325 179.498 299.85 184.639 305.188C184.673 305.223 184.702 305.262 184.736 305.298C188.97 309.801 189.246 316.881 185.156 321.705L166.615 343.466ZM196.86 369.11C192.439 374.325 184.662 374.928 179.487 370.54C174.267 366.115 173.674 358.335 178.045 353.18L196.597 331.405C201.004 326.209 208.826 325.609 213.971 329.975C219.155 334.372 219.796 342.165 215.401 347.349C215.399 347.351 215.398 347.353 215.396 347.355L196.86 369.11ZM245.747 372.862C245.716 372.9 245.689 372.942 245.657 372.979C242.665 376.491 234.42 386.168 227.105 394.754C222.71 399.939 214.917 400.58 209.732 396.185C204.547 391.789 203.906 383.996 208.29 378.825L226.842 357.05C231.262 351.836 239.046 351.235 244.215 355.62C249.301 359.93 250.08 367.622 245.747 372.862ZM116.832 147.146L129.649 152.509C136.683 155.452 144.423 156.749 152.03 156.26C157.766 155.891 159.681 156.153 189.384 157.822C195.483 158.165 201.513 159.109 207.402 160.641C192.727 173.893 176.247 187.176 159.74 197.776C149.157 204.57 147.589 219.522 156.756 228.234C169.285 240.139 197.304 253.825 244.166 211.738C245.006 210.984 246.242 210.994 246.979 211.765C269.679 235.459 301.854 248.694 336.601 243.811C340.538 246.578 332.915 240.992 396.229 287.718C403.005 292.718 404.901 302.552 399.596 309.339C394.557 315.786 385.452 317.035 378.873 312.178C369.985 305.618 376.547 310.611 345.302 286.536C342.018 284.007 337.311 284.619 334.782 287.899C332.255 291.18 332.865 295.889 336.145 298.418L362.068 318.392C366.534 324.276 366.002 332.779 360.715 338.053C355.517 343.24 346.961 343.73 340.812 339.194C334.867 334.807 339.806 338.566 312.54 317.574C309.258 315.046 304.548 315.66 302.022 318.942C299.495 322.224 300.107 326.933 303.389 329.46L326.375 347.157C330.716 352.772 330.503 360.848 325.763 366.222C320.663 372.004 311.627 372.809 305.189 368.057C294.844 360.423 300.036 364.365 280.115 348.946C276.839 346.411 272.129 347.011 269.593 350.287C267.058 353.563 267.658 358.273 270.934 360.808L286.868 373.141C290.493 378.91 289.784 386.466 285.017 391.452C279.814 396.895 271.145 397.498 264.851 392.853L254.769 385.413L257.085 382.694C261.703 377.25 264.087 370.199 263.477 362.78C262.857 355.265 259.286 348.735 253.915 344.179C248.328 339.442 241.031 337.015 233.269 337.857C232.861 330.611 229.538 323.512 223.67 318.534C218.104 313.815 211.038 311.547 203.755 312.142C203.512 312.162 203.269 312.185 203.028 312.212C203.014 311.972 203.006 311.732 202.986 311.491C202.509 305.692 200.249 300.321 196.534 295.988C196.511 295.961 196.49 295.934 196.467 295.907C190.557 289.07 181.759 285.616 172.792 286.58C172.37 279.05 168.956 272.144 163.18 267.246C151.685 257.501 134.408 258.923 124.675 270.403L113.372 283.67L106.765 279.026C106.663 278.954 106.559 278.884 106.453 278.818L73.1669 257.825C98.3319 194.038 88.9059 217.931 116.832 147.146ZM15.0271 243.089L66.3069 113.102C66.3559 112.978 66.4739 112.903 66.5989 112.903C66.6369 112.903 66.6759 112.91 66.7139 112.925L107.519 129.023C107.68 129.086 107.759 129.269 107.696 129.429C105.229 135.683 58.029 255.326 56.415 259.417C56.349 259.58 56.173 259.657 56.009 259.593L15.2041 243.495C15.0421 243.431 14.9621 243.25 15.0271 243.089Z" fill="#F6F7F8"/>
</g>
<defs>
<clipPath id="clip0_322_112">
<rect width="512" height="512" fill="white"/>
</clipPath>
</defs>
</svg>
