<svg width="512" height="512" viewBox="0 0 512 512" fill="none" xmlns="http://www.w3.org/2000/svg">
<g clip-path="url(#clip0_322_124)">
<path d="M504.485 496.971H455.89V199.891C455.89 195.741 452.526 192.376 448.375 192.376H368.219C364.068 192.376 360.704 195.741 360.704 199.891V496.971H303.593V288.063C303.593 283.913 300.229 280.548 296.078 280.548H215.922C211.771 280.548 208.407 283.913 208.407 288.063V496.971H151.296V328.141C151.296 323.991 147.932 320.626 143.781 320.626H63.625C59.474 320.626 56.11 323.991 56.11 328.141V496.97H7.515C3.364 496.97 0 500.335 0 504.485C0 508.635 3.364 512 7.515 512H504.485C508.636 512 512 508.635 512 504.485C511.999 500.335 508.636 496.971 504.485 496.971ZM136.266 496.971H71.139V335.656H136.266V496.971ZM288.564 496.971H223.437V295.578H288.564V496.971ZM440.861 496.971H375.734V207.406H440.861V496.971Z" fill="#F6F7F8"/>
<path d="M488.007 5.89542C482.942 1.42442 476.201 -0.658581 469.501 0.183419L405.376 8.19942C392.646 9.79042 383.34 21.7394 384.933 34.4824C386.542 47.3594 398.323 56.5364 411.217 54.9264L416.449 54.2734C337.744 145.529 244.177 192.691 178.059 216.393C95.6175 245.948 31.4505 248.476 30.8255 248.497C17.8625 248.902 7.63453 259.779 8.02653 272.744C8.41453 285.548 18.7475 295.577 31.5525 295.577C31.7905 295.577 32.0295 295.574 32.2745 295.566C35.1275 295.48 103.149 293.078 192.764 261.146C243.142 243.194 290.546 219.363 333.657 190.316C337.099 187.998 338.009 183.326 335.689 179.885C333.371 176.442 328.701 175.533 325.258 177.852C283.19 206.198 236.915 229.459 187.719 246.989C100.306 278.136 34.5735 280.46 31.8245 280.543L31.5525 280.547C26.9245 280.547 23.1885 276.92 23.0485 272.289C22.9065 267.599 26.6065 263.665 31.2985 263.518C31.9545 263.497 97.9525 261.075 183.131 230.54C254.49 204.959 357.024 152.726 440.257 49.1624C444.401 44.0064 440.02 36.1774 433.469 36.9984L409.357 40.0124C405.177 40.5294 401.117 37.7904 400.056 33.7084C398.78 28.7964 402.212 23.7404 407.242 23.1104L471.369 15.0944C476.376 14.4614 480.94 18.5084 480.94 23.5454V87.6704C480.94 92.3664 477.12 96.1874 472.423 96.1874C467.726 96.1874 463.906 92.3674 463.906 87.6704V68.2304C463.906 65.1594 461.92 62.2874 459.048 61.2024C456.081 60.0814 452.575 61.0224 450.569 63.4784C422.502 97.8694 390.544 128.989 355.581 155.973C352.296 158.509 351.687 163.228 354.223 166.514C356.759 169.8 361.48 170.407 364.764 167.872C395.219 144.367 423.449 117.806 448.901 88.7314C449.457 101.224 459.795 111.218 472.424 111.218C485.407 111.218 495.97 100.655 495.97 87.6724V23.5474C495.969 16.7974 493.067 10.3624 488.007 5.89542Z" fill="#F6F7F8"/>
</g>
<defs>
<clipPath id="clip0_322_124">
<rect width="512" height="512" fill="white"/>
</clipPath>
</defs>
</svg>
