<svg width="512" height="512" viewBox="0 0 512 512" fill="none" xmlns="http://www.w3.org/2000/svg">
<g clip-path="url(#clip0_322_115)">
<path d="M129.894 49.4551C112.409 49.4551 98.1836 63.6801 98.1836 81.1651C98.1836 98.6501 112.409 112.876 129.894 112.876C147.379 112.876 161.605 98.6501 161.605 81.1651C161.605 63.6801 147.379 49.4551 129.894 49.4551ZM129.894 97.8761C120.68 97.8761 113.184 90.3801 113.184 81.1651C113.184 71.9511 120.68 64.4551 129.894 64.4551C139.109 64.4551 146.605 71.9511 146.605 81.1651C146.604 90.3801 139.108 97.8761 129.894 97.8761Z" fill="#F6F7F8"/>
<path d="M161.601 223.205V194.214C161.601 190.071 158.244 186.714 154.101 186.714H77.707C73.564 186.714 70.207 190.071 70.207 194.214V223.205C70.207 227.348 73.564 230.705 77.707 230.705H154.102C158.244 230.705 161.601 227.348 161.601 223.205ZM146.601 215.705H85.207V201.714H146.602L146.601 215.705Z" fill="#F6F7F8"/>
<path d="M477.759 62.258H430.152C421.861 62.258 414.63 66.872 410.884 73.665H211.057V68.91C211.057 65.363 208.573 62.302 205.102 61.571L186.826 57.723C186.793 57.643 186.76 57.563 186.726 57.483L196.929 41.839C198.867 38.868 198.458 34.946 195.95 32.439L178.619 15.107C176.111 12.599 172.19 12.189 169.218 14.128L153.573 24.332C153.493 24.299 153.414 24.266 153.334 24.232L149.486 5.955C148.756 2.484 145.694 0 142.147 0H117.636C114.089 0 111.028 2.484 110.297 5.955L106.449 24.232C106.369 24.265 106.29 24.298 106.21 24.332L90.5664 14.128C87.5954 12.19 83.6734 12.601 81.1654 15.107L63.8334 32.438C61.3254 34.947 60.9174 38.869 62.8544 41.839L73.0584 57.484C73.0254 57.564 72.9924 57.643 72.9584 57.723L54.6814 61.571C51.2104 62.301 48.7264 65.363 48.7264 68.91V73.665H48.5274C28.6304 73.665 12.4414 89.853 12.4414 109.751V343.054C12.4414 362.951 28.6294 379.14 48.5274 379.14H76.9414C80.5674 405.273 103.519 425.114 129.889 425.114C137.665 425.114 145.05 423.432 151.722 420.436L134.759 486.81C128.023 513.162 170.008 522.114 176.479 496.81L206.553 379.142H230.97V491.81C230.97 502.791 240.181 512.001 251.161 512.001C262.143 512.001 271.352 502.791 271.352 491.81V379.14H295.771L325.844 496.807C332.309 522.106 374.302 513.169 367.564 486.808L340.048 379.14H453.798C473.695 379.14 489.884 362.952 489.884 343.054V181C489.884 176.857 486.527 173.5 482.384 173.5C478.241 173.5 474.884 176.857 474.884 181V343.054C474.884 354.681 465.425 364.14 453.798 364.14L182.833 364.141C179.174 338.195 156.832 318.167 129.89 318.167C103.519 318.167 80.5684 338.004 76.9424 364.14H48.5274C36.9004 364.14 27.4414 354.681 27.4414 343.054V125.219H61.6734C61.8184 126.936 62.5424 128.602 63.8334 129.893L81.1654 147.224C83.6724 149.73 87.5924 150.141 90.5654 148.203L106.209 137.999C106.289 138.032 106.369 138.065 106.449 138.099L110.297 156.376C111.027 159.847 114.089 162.331 117.636 162.331H142.147C145.694 162.331 148.755 159.847 149.486 156.376L153.334 138.099C153.414 138.066 153.494 138.033 153.574 137.999L169.218 148.203C172.191 150.142 176.113 149.731 178.619 147.224L195.95 129.893C197.241 128.602 197.964 126.936 198.109 125.219H405.477L335.56 195.136L299.648 159.234C294.058 153.62 284.771 153.623 279.173 159.223L255.859 182.536C252.929 185.465 252.929 190.214 255.858 193.142C258.787 196.07 263.536 196.072 266.464 193.143L289.405 170.204L325.328 206.118C330.921 211.707 340.204 211.724 345.793 206.117L447.861 104.048C450.006 101.902 450.647 98.677 449.486 95.874C448.326 93.071 445.59 91.244 442.557 91.244H430.15C421.13 91.244 421.139 77.258 430.15 77.258H477.757C481.504 77.258 484.553 80.302 484.553 84.043V131.65C484.553 135.469 481.372 138.649 477.554 138.649C473.696 138.649 470.556 135.509 470.556 131.65V119.254C470.556 116.221 468.729 113.485 465.926 112.325C463.123 111.162 459.898 111.805 457.753 113.95L335.565 236.128L299.638 200.21C294.004 194.578 284.829 194.575 279.172 200.211L217.619 261.774C211.318 268.085 201.342 258.271 207.731 251.877L241.469 218.141C244.398 215.211 244.398 210.463 241.469 207.534C238.54 204.607 233.791 204.605 230.863 207.534L197.125 241.27C188.386 250.011 188.745 264.592 197.769 272.971C206.312 280.904 219.993 280.63 228.232 272.376L289.406 211.193L325.329 247.106C330.898 252.694 340.217 252.714 345.793 247.116L456.156 136.762C458.466 146.436 467.184 153.651 477.555 153.651C489.537 153.651 499.554 143.637 499.554 131.652V84.043C499.555 72.03 489.777 62.258 477.759 62.258ZM161.946 493.093C160.283 499.6 147.402 497.916 149.293 490.524L170.924 405.886C177.168 398.418 181.409 389.228 182.832 379.141H191.071L161.946 493.093ZM256.353 491.809C256.353 498.488 245.97 498.499 245.97 491.809V379.14H256.353V491.809ZM353.032 490.523C354.918 497.898 342.041 499.594 340.379 493.093L311.255 379.14H324.566L353.032 490.523ZM121.206 334.147C124.042 333.497 126.964 333.167 129.89 333.167C151.104 333.167 168.362 350.419 168.369 371.627L168.368 371.64L168.369 371.653C168.362 392.861 151.103 410.113 129.89 410.113C108.84 410.113 91.4174 392.672 91.4174 371.639C91.4174 353.606 103.67 338.188 121.206 334.147ZM27.4414 109.751C27.4414 98.124 36.9004 88.665 48.5274 88.665H48.7264V93.421C48.7264 96.968 51.2104 100.029 54.6814 100.76L72.9584 104.608C72.9914 104.688 73.0244 104.767 73.0584 104.847L69.5544 110.219H27.4414V109.751ZM172.315 132.313L158.304 123.174C153.216 119.858 140.741 125.092 139.506 130.964L136.061 147.329H123.722L120.277 130.964C119.027 125.02 106.504 119.897 101.479 123.174L87.4684 132.313L78.7424 123.588L87.8814 109.577C91.1964 104.49 85.9644 92.014 80.0924 90.779L63.7264 87.334V74.996L80.0924 71.551C86.0374 70.301 91.1564 57.778 87.8814 52.753L78.7424 38.742L87.4684 30.016L101.479 39.155C106.566 42.471 119.042 37.238 120.277 31.366L123.723 15H136.062L139.507 31.366C140.757 37.31 153.28 42.431 158.305 39.155L172.316 30.016L181.041 38.742L171.902 52.753C168.585 57.839 173.821 70.317 179.692 71.551L196.057 74.996V87.335L179.692 90.78C173.749 92.029 168.625 104.554 171.902 109.578L181.041 123.589L172.315 132.313ZM425.045 105.651L420.478 110.218H190.229L186.726 104.847C186.759 104.767 186.792 104.687 186.826 104.607L205.102 100.759C208.573 100.029 211.057 96.967 211.057 93.42V88.664H408.608C410.284 96.937 416.829 103.708 425.045 105.651Z" fill="#F6F7F8"/>
<path d="M436.721 314.018H294.578C290.435 314.018 287.078 317.375 287.078 321.518C287.078 325.661 290.435 329.018 294.578 329.018H436.721C440.864 329.018 444.221 325.661 444.221 321.518C444.221 317.375 440.863 314.018 436.721 314.018Z" fill="#F6F7F8"/>
<path d="M436.72 281.113H352.449C348.306 281.113 344.949 284.47 344.949 288.613C344.949 292.756 348.306 296.113 352.449 296.113H436.72C440.863 296.113 444.22 292.756 444.22 288.613C444.22 284.47 440.862 281.113 436.72 281.113Z" fill="#F6F7F8"/>
<path d="M77.707 244.189C73.564 244.189 70.207 247.546 70.207 251.689C70.207 255.832 73.564 259.189 77.707 259.189H129.891C134.034 259.189 137.391 255.832 137.391 251.689C137.391 247.546 134.034 244.189 129.891 244.189H77.707Z" fill="#F6F7F8"/>
<path d="M129.895 389.254C134.038 389.254 137.395 385.897 137.395 381.754V361.526C137.395 357.383 134.038 354.026 129.895 354.026C125.752 354.026 122.395 357.383 122.395 361.526V381.754C122.395 385.896 125.752 389.254 129.895 389.254Z" fill="#F6F7F8"/>
</g>
<defs>
<clipPath id="clip0_322_115">
<rect width="512" height="512" fill="white"/>
</clipPath>
</defs>
</svg>
